<?xml version="1.0" encoding="UTF-8"?>
<svg id="Layer_1" data-name="Layer 1" xmlns="http://www.w3.org/2000/svg" viewBox="0 0 1216.67 205.03">
  <defs>
    <style>
      .cls-1 {
        font-size: 48px;
      }

      .cls-1, .cls-2 {
        font-family: Rockwell-Regular, Rockwell;
      }

      .cls-1, .cls-2, .cls-3 {
        fill: #fff;
      }

      .cls-2 {
        font-size: 72px;
        letter-spacing: .1em;
      }

      .cls-4 {
        letter-spacing: -.05em;
      }

      .cls-3 {
        stroke-width: 0px;
      }
    </style>
  </defs>
  <text class="cls-2" transform="translate(459.84 79.52)"><tspan x="0" y="0">RED BARN</tspan></text>
  <text class="cls-1" transform="translate(460.3 168.4)"><tspan x="0" y="0">LIQUOR &amp; BEVER</tspan><tspan class="cls-4" x="420.77" y="0">A</tspan><tspan x="457.08" y="0">GE MARKET</tspan></text>
  <path class="cls-3" d="M0,205.01c6.57-4.46,13.71-7.35,21.03-9.85,10.71-3.66,21.7-6.25,32.88-7.96,2.06-.32,2.27-1.18,2.27-2.88-.04-23.76-.03-47.51-.03-71.27,0-6.18-.07-12.36.03-18.54.03-2.06-.3-3.73-2.07-5.03-.94-.69-1.61-1.73-2.51-2.72,3.9-6.41,7.76-12.75,11.62-19.1,5.92-9.72,11.83-19.46,17.79-29.16.77-1.25,1.69-2.46,2.74-3.49,8.4-8.23,16.88-16.39,25.25-24.65,1.22-1.2,2.17-1.25,3.71-.77,18.06,5.73,36.16,11.37,54.24,17.02.62.19,1.27.3,2.1.49.14-2.61.33-5.05.38-7.49.03-1.48.57-2.24,2.44-2.1,0,2.84.09,5.71-.03,8.57-.07,1.57.35,2.42,1.96,2.83,2.29.59,4.51,1.43,7.21,2.31v-14.51c2.1-.43,2.65.32,2.62,1.95-.05,3.72.11,7.45-.03,11.17-.07,1.81.43,2.78,2.28,3.07,1.07.17,2.1.61,3.28.97-.31-5.06-.6-9.93-.89-14.82,2.4-.37,2.84.64,2.96,2.57.25,4.07.77,8.13,1.37,12.17.1.69,1.07,1.55,1.81,1.79,11.92,3.96,23.88,7.8,35.79,11.76,1.27.42,2.56,1.26,3.44,2.25,14.42,16.37,28.77,32.8,43.13,49.22.14.16.22.36.61,1.04-3.24-.65-6.1-1.16-8.93-1.8-32.77-7.42-65.53-14.84-98.28-22.36-1.38-.32-2.88-1.27-3.75-2.38-9.51-12.13-18.89-24.35-28.34-36.52-.81-1.04-1.8-1.99-2.86-2.78-7.3-5.4-14.67-10.71-21.94-16.14-1.41-1.05-2.22-1.09-3.51.2-6.55,6.51-13.1,13.02-19.86,19.31-3.53,3.29-5.71,7.39-8.09,11.41-7.21,12.16-14.4,24.32-21.52,36.53-.68,1.16-1.15,2.63-1.15,3.96-.02,31.35.03,62.7.08,94.06,0,.88,0,1.76,0,2.89,5.76-.65,11.26-1.27,16.98-1.91v-48.99h4.38v48.68c4.21-.22,8.16-.42,12.36-.64v-48.8c11.81-.42,23.37-.82,35.31-1.24v50.11c4.1.26,7.85.49,11.87.74v-51.04h3.73c0,1.15,0,2.24,0,3.34.01,15.27.05,30.53,0,45.8,0,1.76.45,2.42,2.31,2.58,5.03.43,10.04,1.13,15.31,1.75v-16.09h3.19v16.75c2.5.54,4.8,1.04,7.44,1.62v-28.91h23.35v25.94c6.94-.4,13.65-.79,20.77-1.2v-15.39c1.01-.11,1.64-.18,2.7-.29v15.73c24.98-.35,49.49.56,74.29,4.99v-18.17c.3,0,.6,0,.9,0,.88,2.93.32,5.99.42,8.98.1,3.1.02,6.22.02,9.24,5.63,1.36,11.01,2.67,16.4,3.97-.03.18-.06.36-.08.55-3.41-.36-6.81-.71-10.22-1.07-23.66-2.45-47.39-3.48-71.14-2.17-13.94.77-27.87,2.31-41.71,4.2-9.37,1.28-18.66,1.12-28.01.82-3.87-.12-7.75-.47-11.61-.28-7.12.34-14.08-.79-21.08-1.7-14.85-1.92-29.7-1.71-44.52.34-8.2,1.14-16.2,3.06-24.06,5.67-1.74.58-3.82.26-5.73.19-9.41-.35-18.76.07-27.98,2.03-2.17.46-4.27,1.27-6.42,1.84-1.35.35-2.73.74-4.1.77-4.75.09-9.51.04-14.26.04ZM96.58,183.14c1.04,0,1.93,0,2.81,0,7.52.02,15.04-.07,22.55.14,2.22.06,2.94-.28,2.91-2.66-.12-13.1-.06-26.21-.07-39.31,0-.73-.07-1.45-.12-2.36-9.42.38-18.68.75-28.09,1.13v43.06ZM174.23,188.43c6.21-.79,12.28-1.56,18.35-2.33v-22.14h-18.35v24.47Z"/>
  <path class="cls-3" d="M188.89,111.24c-9.96,18.01-19.72,35.68-29.63,53.61-1.55-1.08-2.86-1.99-4.36-3.03,2.01-3.7,3.92-7.29,5.89-10.86,8.54-15.51,17.11-30.99,25.6-46.52.76-1.38,1.42-1.84,3.1-1.52,25.91,4.94,51.83,9.79,77.75,14.65.35.07.7.1,1.52.22v-15.5c.26-.01.53-.03.79-.04.07.73.18,1.46.19,2.19.01,4.09-.15,8.2.07,12.28.09,1.75.62,3.67,1.53,5.16,8.89,14.44,17.91,28.8,26.88,43.19.35.55.63,1.14,1.02,1.84-3.47,0-6.77.11-10.07-.02-12.49-.5-24.98-1.11-37.47-1.64-9.22-.39-18.44-.75-27.67-1.06-1.64-.06-2.64-.63-3.54-2.08-9.99-16.21-20.07-32.36-30.12-48.53-.39-.63-.79-1.25-1.49-2.33Z"/>
  <path class="cls-3" d="M107.55,84.27c-1.02-3.15-2.03-6.31-3.06-9.46-1.5-4.59-3.08-9.15-4.52-13.76-1.15-3.69-1.08-3.71,2.56-6.14,2.59,7.83,5.15,15.59,7.72,23.35.22-.03.44-.07.65-.1v-28.11h4.04v30.98c3.01-9.06,5.83-17.57,8.66-26.09,3.66,1.65,3.9,2.12,2.76,5.66-2.2,6.86-4.42,13.71-6.63,20.57-.25.76-.43,1.54-.26,2.58,4.98-5.93,9.95-11.86,15.11-18.01.88,1.32,1.8,2.33,2.25,3.53.22.59-.25,1.66-.74,2.25-4.1,4.92-8.28,9.77-12.43,14.64-.48.56-.91,1.15-1.13,2.12,5.82-2.88,11.64-5.75,17.73-8.76.57,1.68,1.06,3.12,1.62,4.78-6.2,2.98-12.33,5.93-19.1,9.19,7.06.3,13.47.57,19.93.84v4.79c-19.68-1.61-39.18-.81-58.82,1.92v-4.63c6.49-.59,12.98-1.17,19.48-1.76.03-.14.07-.28.1-.41-2-.89-3.99-1.8-5.99-2.68-3.48-1.51-6.92-3.12-10.47-4.45-1.83-.69-2.31-1.57-1.48-3.29.34-.72.54-1.51.88-2.51,6.06,2.71,11.99,5.37,17.91,8.02.1-.12.2-.24.31-.37-.47-.58-.91-1.18-1.4-1.73-3.88-4.32-7.78-8.62-11.66-12.94-2.71-3.02-2.7-3.11.33-6.6,5.06,5.63,10.1,11.24,15.15,16.86l.48-.27Z"/>
  <path class="cls-3" d="M197.87,14.69c-6.07-.77-12.14-2.11-18.23-2.17-6.09-.06-12.18,1.15-18.28,1.8-.22-.27-.44-.55-.66-.82.64-.34,1.33-.59,1.9-1.02,5.27-3.98,10.51-8.02,15.81-11.96.52-.39,1.67-.69,2.05-.4,5.96,4.51,11.84,9.13,17.74,13.72-.12.28-.23.57-.35.85Z"/>
  <path class="cls-3" d="M169.16,82.52c.51,2.62,1.38,5.22,1.48,7.85.26,7.2.37,14.41.16,21.61-.09,2.99-1.16,5.94-1.78,8.92-.28-.05-.55-.09-.83-.14v-38.11l.97-.12Z"/>
</svg>